<svg version="1.1" xmlns="http://www.w3.org/2000/svg" xmlns:xlink="http://www.w3.org/1999/xlink" width="91.49934" height="98.82917" viewBox="0,0,91.49934,98.82917"><g transform="translate(-149.87108,-81.29427)"><g fill="#8fc4f0" fill-rule="evenodd" stroke="#000000" stroke-miterlimit="10"><path d="M240.6429,179.21812l-90.1,-43.39l0.77,-1.56l0.8,-1.56l0.83,-1.53l0.85,-1.53l0.88,-1.51l0.9,-1.49l0.93,-1.48l0.96,-1.46l0.98,-1.44l1.01,-1.42l1.03,-1.41l1.05,-1.39l1.08,-1.37l1.11,-1.36l1.12,-1.33l1.15,-1.31l1.18,-1.29l1.19,-1.28l1.22,-1.25l1.24,-1.23l1.26,-1.2l1.28,-1.19l1.3,-1.16l1.32,-1.14l1.34,-1.12l1.36,-1.09l1.38,-1.07l1.4,-1.05l1.41,-1.02l1.44,-0.99l1.45,-0.97l1.47,-0.95l1.48,-0.92l1.5,-0.89l1.51,-0.87l1.53,-0.84l1.55,-0.81l1.56,-0.79l1.57,-0.76l1.58,-0.73l1.6,-0.7l1.61,-0.68l1.62,-0.65l1.63,-0.62l1.64,-0.59l1.65,-0.56l1.67,-0.53l1.67,-0.51l1.68,-0.47l1.68,-0.45l1.7,-0.41z"/></g></g></svg>