<svg xmlns="http://www.w3.org/2000/svg" fill="none" viewBox="0 0 73 103" height="103" width="73">
<path stroke="black" fill="#8FC4F0" d="M71.71 101L1 30.29L2.24 29.07L3.51 27.86L4.8 26.69L6.1 25.53L7.43 24.4L8.78 23.29L10.14 22.2L11.53 21.14L12.93 20.1L14.35 19.08L15.79 18.1L17.25 17.13L18.72 16.2L20.21 15.28L21.71 14.4L23.23 13.54L24.76 12.71L26.31 11.9L27.87 11.12L29.45 10.37L31.04 9.65L32.64 8.95L34.25 8.28L35.87 7.64L37.51 7.03L39.15 6.45L40.81 5.89L42.47 5.37L44.15 4.87L45.83 4.41L47.52 3.97L49.21 3.56L50.92 3.19L52.63 2.84L54.35 2.52L56.07 2.23L57.79 1.97L59.52 1.75L61.26 1.55L62.99 1.38L64.73 1.24L66.48 1.14L68.22 1.06L69.96 1.02L71.71 1V101Z" clip-rule="evenodd" fill-rule="evenodd"></path>
</svg>
