<svg xmlns="http://www.w3.org/2000/svg" fill="none" viewBox="0 0 83 98" height="98" width="83">
<path stroke="black" fill="#D30000" d="M81.9 96.11L1 37.33L2.04 35.93L3.1 34.54L4.19 33.18L5.3 31.83L6.43 30.5L7.59 29.2L8.76 27.91L9.97 26.64L11.19 25.4L12.43 24.18L13.7 22.97L14.99 21.8L16.29 20.64L17.62 19.51L18.97 18.4L20.33 17.31L21.72 16.25L23.12 15.21L24.54 14.19L25.98 13.21L27.44 12.24L28.91 11.31L30.4 10.39L31.9 9.51L33.42 8.65L34.95 7.82L36.5 7.01L38.06 6.23L39.64 5.48L41.23 4.76L42.83 4.06L44.44 3.39L46.06 2.75L47.7 2.14L49.34 1.56L51 1L81.9 96.11Z" clip-rule="evenodd" fill-rule="evenodd"></path>
</svg>
