<svg version="1.1" xmlns="http://www.w3.org/2000/svg" xmlns:xlink="http://www.w3.org/1999/xlink" width="113.13437" height="101.30908" viewBox="0,0,113.13437,101.30908"><g transform="translate(-158.08282,-178.95637)"><g fill="#d30000" fill-rule="evenodd" stroke="#000000" stroke-miterlimit="10"><path d="M239.68552,179.76542l30.9,95.11l-1.66,0.52l-1.68,0.5l-1.68,0.46l-1.69,0.44l-1.69,0.41l-1.71,0.37l-1.71,0.35l-1.72,0.32l-1.72,0.29l-1.72,0.26l-1.73,0.22l-1.74,0.2l-1.73,0.17l-1.74,0.14l-1.75,0.1l-1.74,0.08l-1.74,0.04l-1.75,0.02l-1.75,-0.02l-1.74,-0.04l-1.74,-0.08l-1.75,-0.1l-1.74,-0.14l-1.73,-0.17l-1.74,-0.2l-1.73,-0.22l-1.72,-0.26l-1.72,-0.29l-1.72,-0.32l-1.71,-0.35l-1.71,-0.37l-1.69,-0.41l-1.69,-0.44l-1.68,-0.46l-1.68,-0.5l-1.66,-0.52l-1.66,-0.56l-1.64,-0.58l-1.64,-0.61l-1.62,-0.64l-1.61,-0.67l-1.6,-0.7l-1.59,-0.72l-1.58,-0.75l-1.56,-0.78l-1.55,-0.81l-1.53,-0.83l-1.52,-0.86l-1.5,-0.88l-1.49,-0.92l-1.47,-0.93l-1.46,-0.97l-1.44,-0.98l-1.42,-1.02l-1.4,-1.04l-1.39,-1.06l-1.36,-1.09l-1.35,-1.11l-1.33,-1.13l-1.3,-1.16l-1.29,-1.17l-1.27,-1.21l-1.24,-1.22l-1.22,-1.24l-1.21,-1.27l-1.17,-1.29l-1.16,-1.3l-1.13,-1.33l-1.11,-1.35l-1.09,-1.36l-1.06,-1.39l-1.04,-1.4z"/></g></g></svg>