<svg version="1.1" xmlns="http://www.w3.org/2000/svg" xmlns:xlink="http://www.w3.org/1999/xlink" width="101.19392" height="96.2454" viewBox="0,0,101.19392,96.2454"><g transform="translate(-239.07725,-179.7748)"><g fill="#d30000" fill-rule="evenodd" stroke="#000000" stroke-miterlimit="10"><path d="M239.76542,180.2748h100l-0.02,1.75l-0.04,1.74l-0.08,1.74l-0.1,1.75l-0.14,1.74l-0.17,1.73l-0.2,1.74l-0.22,1.73l-0.26,1.72l-0.29,1.72l-0.32,1.72l-0.35,1.71l-0.37,1.71l-0.41,1.69l-0.44,1.69l-0.46,1.68l-0.5,1.68l-0.52,1.66l-0.56,1.66l-0.58,1.64l-0.61,1.64l-0.64,1.62l-0.67,1.61l-0.7,1.6l-0.72,1.59l-0.75,1.58l-0.78,1.56l-0.81,1.55l-0.83,1.53l-0.86,1.52l-0.88,1.5l-0.92,1.49l-0.93,1.47l-0.97,1.46l-0.98,1.44l-1.02,1.42l-1.04,1.4l-1.06,1.39l-1.09,1.36l-1.11,1.35l-1.13,1.33l-1.16,1.3l-1.17,1.29l-1.21,1.27l-1.22,1.24l-1.24,1.22l-1.27,1.21l-1.29,1.17l-1.3,1.16l-1.33,1.13l-1.35,1.11l-1.36,1.09l-1.39,1.06l-1.4,1.04l-1.42,1.02l-1.44,0.98l-1.46,0.97l-1.47,0.93l-1.49,0.92l-1.5,0.88l-1.52,0.86l-1.53,0.83l-1.55,0.81l-1.56,0.78l-1.58,0.75l-1.59,0.72l-1.6,0.7l-1.61,0.67l-1.62,0.64l-1.64,0.61l-1.64,0.58l-1.66,0.56z"/></g></g></svg>