<svg xmlns="http://www.w3.org/2000/svg" fill="none" viewBox="0 0 202 202" height="202" width="202">
<path stroke="black" fill="white" d="M101 101L163.35 22.8201L164.7 23.9201L166.04 25.0401L167.36 26.1901L168.65 27.3601L169.93 28.5501L171.18 29.7601L172.41 31.0001L173.62 32.2601L174.81 33.5301L175.98 34.8301L177.12 36.1501L178.24 37.4901L179.34 38.8501L180.41 40.2201L181.46 41.6201L182.48 43.0301L183.48 44.4601L184.46 45.9101L185.41 47.3801L186.33 48.8601L187.23 50.3501L188.1 51.8701L188.94 53.3901L189.76 54.9401L190.55 56.4901L191.31 58.0601L192.05 59.6401L192.76 61.2401L193.44 62.8501L194.09 64.4701L194.71 66.1001L195.31 67.7401L195.87 69.3901L196.41 71.0501L196.92 72.7201L197.4 74.4001L197.85 76.0801L198.27 77.7801L198.66 79.4801L199.02 81.1901L199.35 82.9001L199.65 84.6201L199.92 86.3401L200.16 88.0701L200.37 89.8001L200.55 91.5401L200.7 93.2801L200.82 95.0201L200.91 96.7601L200.97 98.5101L201 100.25L101 101Z" clip-rule="evenodd" fill-rule="evenodd"></path>
<path stroke="black" fill="white" d="M101 101H201L200.98 102.75L200.94 104.49L200.86 106.23L200.76 107.98L200.62 109.72L200.45 111.45L200.25 113.19L200.03 114.92L199.77 116.64L199.48 118.36L199.16 120.08L198.81 121.79L198.44 123.5L198.03 125.19L197.59 126.88L197.13 128.56L196.63 130.24L196.11 131.9L195.55 133.56L194.97 135.2L194.36 136.84L193.72 138.46L193.05 140.07L192.35 141.67L191.63 143.26L190.88 144.84L190.1 146.4L189.29 147.95L188.46 149.48L187.6 151L186.72 152.5L185.8 153.99L184.87 155.46L183.9 156.92L182.92 158.36L181.9 159.78L180.86 161.18L179.8 162.57L178.71 163.93L177.6 165.28L176.47 166.61L175.31 167.91L174.14 169.2L172.93 170.47L171.71 171.71L170.47 172.93L169.2 174.14L167.91 175.31L166.61 176.47L165.28 177.6L163.93 178.71L101 101Z" clip-rule="evenodd" fill-rule="evenodd"></path>
<path stroke="black" fill="white" d="M101 101L163.35 179.18L161.98 180.26L160.58 181.31L159.17 182.34L157.74 183.34L156.3 184.32L154.84 185.27L153.36 186.2L151.86 187.1L150.35 187.97L148.83 188.82L147.29 189.64L145.73 190.44L144.16 191.2L142.58 191.94L140.99 192.66L139.38 193.34L137.77 194L136.14 194.62L134.5 195.22L132.85 195.79L131.19 196.33L129.52 196.85L127.84 197.33L126.16 197.78L124.47 198.21L122.77 198.6L121.06 198.97L119.35 199.3L117.63 199.61L115.9 199.88L114.18 200.13L112.44 200.34L110.71 200.53L108.97 200.68L107.23 200.81L105.49 200.9L103.74 200.96L102 201H100.25L98.5105 200.97L96.7605 200.91L95.0205 200.82L93.2805 200.7L91.5405 200.55L89.8005 200.37L88.0705 200.16L86.3405 199.92L84.6205 199.65L82.9005 199.35L81.1905 199.02L79.4805 198.66L101 101Z" clip-rule="evenodd" fill-rule="evenodd"></path>
<path stroke="black" fill="#FFFF00" d="M101 101L78.7505 198.49L77.0505 198.09L75.3605 197.66L73.6805 197.19L72.0005 196.7L70.3405 196.18L68.6805 195.63L67.0305 195.05L65.4005 194.45L63.7705 193.81L62.1605 193.15L60.5505 192.46L58.9605 191.74L57.3905 190.99L55.8205 190.21L54.2705 189.41L52.7405 188.58L51.2205 187.73L49.7105 186.84L48.2205 185.94L46.7505 185L45.2905 184.04L43.8505 183.06L42.4205 182.05L41.0205 181.01L39.6305 179.95L38.2605 178.87L36.9105 177.76L35.5805 176.63L34.2705 175.48L32.9805 174.31L31.7105 173.11L30.4705 171.89L29.2405 170.64L28.0305 169.38L26.8505 168.1L25.6905 166.79L24.5605 165.47L23.4405 164.13L22.3505 162.76L21.2905 161.38L20.2505 159.98L19.2305 158.56L18.2405 157.13L17.2705 155.67L16.3305 154.2L15.4105 152.72L14.5205 151.22L13.6605 149.7L12.8205 148.17L12.0105 146.62L11.2305 145.06L101 101Z" clip-rule="evenodd" fill-rule="evenodd"></path>
<path stroke="black" fill="#FFFF00" d="M101 101L10.9 144.39L10.16 142.81L9.44 141.22L8.76 139.61L8.1 138L7.46 136.37L6.86 134.73L6.29 133.08L5.74 131.43L5.22 129.76L4.74 128.08L4.28 126.4L3.85 124.71L3.45 123.01L3.08 121.3L2.74 119.59L2.43 117.87L2.15 116.15L1.91 114.42L1.69 112.69L1.5 110.96L1.34 109.22L1.21 107.48L1.11 105.74L1.04 103.99L1.01 102.25L1 100.5L1.03 98.76L1.08 97.01L1.16 95.27L1.28 93.53L1.43 91.79L1.6 90.05L1.81 88.32L2.04 86.59L2.31 84.86L2.61 83.14L2.93 81.43L3.29 79.72L3.68 78.02L4.09 76.32L4.54 74.64L5.01 72.96L5.52 71.29L6.05 69.62L6.61 67.97L7.2 66.33L7.82 64.7L8.47 63.08L9.15 61.47L9.85 59.87L10.58 58.29L101 101Z" clip-rule="evenodd" fill-rule="evenodd"></path>
<path stroke="black" fill="#FFFF00" d="M101 101L10.9004 57.6099L11.6704 56.0499L12.4704 54.4899L13.3004 52.9599L14.1504 51.4299L15.0304 49.9199L15.9304 48.4299L16.8604 46.9499L17.8204 45.4899L18.8004 44.0499L19.8104 42.6299L20.8404 41.2199L21.8904 39.8299L22.9704 38.4599L24.0804 37.0999L25.2004 35.7699L26.3504 34.4599L27.5304 33.1699L28.7204 31.8899L29.9404 30.6399L31.1804 29.4099L32.4404 28.2099L33.7204 27.0199L35.0204 25.8599L36.3404 24.7199L37.6804 23.5999L39.0404 22.5099L40.4204 21.4399L41.8204 20.3899L43.2304 19.3699L44.6704 18.3799L46.1204 17.4099L47.5904 16.4599L49.0704 15.5399L50.5704 14.6499L52.0804 13.7799L53.6104 12.9399L55.1604 12.1299L56.7204 11.3399L58.2904 10.5799L59.8704 9.84993L61.4704 9.14993L63.0804 8.46993L64.7004 7.81993L66.3304 7.19993L67.9704 6.60993L69.6204 6.04993L71.2904 5.51993L72.9604 5.00993L74.6404 4.53993L76.3204 4.08993L78.0204 3.67993L101 101Z" clip-rule="evenodd" fill-rule="evenodd"></path>
<path stroke="black" fill="white" d="M101 101L78.75 3.51L80.45 3.13L82.16 2.79L83.88 2.48L85.6 2.19L87.33 1.94L89.06 1.72L90.8 1.52L92.53 1.36L94.27 1.23L96.02 1.12L97.76 1.05L99.5 1.01L101.25 1L102.99 1.02L104.74 1.07L106.48 1.15L108.22 1.26L109.96 1.4L111.7 1.57L113.43 1.78L115.16 2.01L116.89 2.27L118.61 2.56L120.33 2.89L122.03 3.24L123.74 3.62L125.43 4.03L127.12 4.47L128.8 4.94L130.48 5.44L132.14 5.97L133.79 6.53L135.44 7.12L137.07 7.73L138.69 8.38L140.3 9.05L141.9 9.75L143.49 10.47L145.06 11.23L146.62 12.01L148.17 12.82L149.7 13.66L151.22 14.52L152.72 15.41L154.2 16.33L155.67 17.27L157.13 18.24L158.56 19.23L159.98 20.25L161.38 21.29L162.76 22.35L101 101Z" clip-rule="evenodd" fill-rule="evenodd"></path>
</svg>
