<svg version="1.1" xmlns="http://www.w3.org/2000/svg" xmlns:xlink="http://www.w3.org/1999/xlink" width="85.31458" height="101.63333" viewBox="0,0,85.31458,101.63333"><g transform="translate(-215.97987,-79.89811)"><g fill="#8fc4f0" fill-rule="evenodd" stroke="#000000" stroke-miterlimit="10"><path d="M238.82909,180.39813l-22.25,-97.49l1.7,-0.38l1.71,-0.34l1.72,-0.31l1.72,-0.29l1.73,-0.25l1.73,-0.22l1.74,-0.2l1.73,-0.16l1.74,-0.13l1.75,-0.11l1.74,-0.07l1.74,-0.04l1.75,-0.01l1.74,0.02l1.75,0.05l1.74,0.08l1.74,0.11l1.74,0.14l1.74,0.17l1.73,0.21l1.73,0.23l1.73,0.26l1.72,0.29l1.72,0.33l1.7,0.35l1.71,0.38l1.69,0.41l1.69,0.44l1.68,0.47l1.68,0.5l1.66,0.53l1.65,0.56l1.65,0.59l1.63,0.61l1.62,0.65l1.61,0.67l1.6,0.7l1.59,0.72l1.57,0.76l1.56,0.78l1.55,0.81l1.53,0.84l1.52,0.86l1.5,0.89l1.48,0.92l1.47,0.94l1.46,0.97l1.43,0.99l1.42,1.02l1.4,1.04l1.38,1.06z"/></g></g></svg>