<svg version="1.1" xmlns="http://www.w3.org/2000/svg" xmlns:xlink="http://www.w3.org/1999/xlink" width="113.13437" height="101.30908" viewBox="0,0,113.13437,101.30908"><g transform="translate(-157.41928,-79.07101)"><g fill="#d30000" fill-rule="evenodd" stroke="#000000" stroke-miterlimit="10"><path d="M239.02198,179.57105l-80.9,-58.78l1.04,-1.4l1.06,-1.39l1.09,-1.36l1.11,-1.35l1.13,-1.33l1.16,-1.3l1.17,-1.29l1.21,-1.27l1.22,-1.24l1.24,-1.22l1.27,-1.21l1.29,-1.17l1.3,-1.16l1.33,-1.13l1.35,-1.11l1.36,-1.09l1.39,-1.06l1.4,-1.04l1.42,-1.02l1.44,-0.98l1.46,-0.97l1.47,-0.93l1.49,-0.92l1.5,-0.88l1.52,-0.86l1.53,-0.83l1.55,-0.81l1.56,-0.78l1.58,-0.75l1.59,-0.72l1.6,-0.7l1.61,-0.67l1.62,-0.64l1.64,-0.61l1.64,-0.58l1.66,-0.56l1.66,-0.52l1.68,-0.5l1.68,-0.46l1.69,-0.44l1.69,-0.41l1.71,-0.37l1.71,-0.35l1.72,-0.32l1.72,-0.29l1.72,-0.26l1.73,-0.22l1.74,-0.2l1.73,-0.17l1.74,-0.14l1.75,-0.1l1.74,-0.08l1.74,-0.04l1.75,-0.02l1.75,0.02l1.74,0.04l1.74,0.08l1.75,0.1l1.74,0.14l1.73,0.17l1.74,0.2l1.73,0.22l1.72,0.26l1.72,0.29l1.72,0.32l1.71,0.35l1.71,0.37l1.69,0.41l1.69,0.44l1.68,0.46l1.68,0.5l1.66,0.52z"/></g></g></svg>