<svg xmlns="http://www.w3.org/2000/svg" fill="none" viewBox="0 0 114 102" height="102" width="114">
<path stroke="black" fill="#D30000" d="M81.9 101L1 42.22L2.04 40.82L3.1 39.43L4.19 38.07L5.3 36.72L6.43 35.39L7.59 34.09L8.76 32.8L9.97 31.53L11.19 30.29L12.43 29.07L13.7 27.86L14.99 26.69L16.29 25.53L17.62 24.4L18.97 23.29L20.33 22.2L21.72 21.14L23.12 20.1L24.54 19.08L25.98 18.1L27.44 17.13L28.91 16.2L30.4 15.28L31.9 14.4L33.42 13.54L34.95 12.71L36.5 11.9L38.06 11.12L39.64 10.37L41.23 9.65L42.83 8.95L44.44 8.28L46.06 7.64L47.7 7.03L49.34 6.45L51 5.89L52.66 5.37L54.34 4.87L56.02 4.41L57.71 3.97L59.4 3.56L61.11 3.19L62.82 2.84L64.54 2.52L66.26 2.23L67.98 1.97L69.71 1.75L71.45 1.55L73.18 1.38L74.92 1.24L76.67 1.14L78.41 1.06L80.15 1.02L81.9 1L83.65 1.02L85.39 1.06L87.13 1.14L88.88 1.24L90.62 1.38L92.35 1.55L94.09 1.75L95.82 1.97L97.54 2.23L99.26 2.52L100.98 2.84L102.69 3.19L104.4 3.56L106.09 3.97L107.78 4.41L109.46 4.87L111.14 5.37L112.8 5.89L81.9 101Z" clip-rule="evenodd" fill-rule="evenodd"></path>
</svg>
