<svg xmlns="http://www.w3.org/2000/svg" fill="none" viewBox="0 0 102 102" height="102" width="102">
<path stroke="black" fill="#8FC4F0" d="M101 101H1L1.02 99.25L1.06 97.51L1.14 95.77L1.24 94.02L1.38 92.28L1.55 90.55L1.75 88.81L1.97 87.08L2.23 85.36L2.52 83.64L2.84 81.92L3.19 80.21L3.56 78.5L3.97 76.81L4.41 75.12L4.87 73.44L5.37 71.76L5.89 70.1L6.45 68.44L7.03 66.8L7.64 65.16L8.28 63.54L8.95 61.93L9.65 60.33L10.37 58.74L11.12 57.16L11.9 55.6L12.71 54.05L13.54 52.52L14.4 51L15.28 49.5L16.2 48.01L17.13 46.54L18.1 45.08L19.08 43.64L20.1 42.22L21.14 40.82L22.2 39.43L23.29 38.07L24.4 36.72L25.53 35.39L26.69 34.09L27.86 32.8L29.07 31.53L30.29 30.29L31.53 29.07L32.8 27.86L34.09 26.69L35.39 25.53L36.72 24.4L38.07 23.29L39.43 22.2L40.82 21.14L42.22 20.1L43.64 19.08L45.08 18.1L46.54 17.13L48.01 16.2L49.5 15.28L51 14.4L52.52 13.54L54.05 12.71L55.6 11.9L57.16 11.12L58.74 10.37L60.33 9.65L61.93 8.95L63.54 8.28L65.16 7.64L66.8 7.03L68.44 6.45L70.1 5.89L71.76 5.37L73.44 4.87L75.12 4.41L76.81 3.97L78.5 3.56L80.21 3.19L81.92 2.84L83.64 2.52L85.36 2.23L87.08 1.97L88.81 1.75L90.55 1.55L92.28 1.38L94.02 1.24L95.77 1.14L97.51 1.06L99.25 1.02L101 1V101Z" clip-rule="evenodd" fill-rule="evenodd"></path>
</svg>
