<svg version="1.1" xmlns="http://www.w3.org/2000/svg" xmlns:xlink="http://www.w3.org/1999/xlink" width="101.37179" height="87.78603" viewBox="0,0,101.37179,87.78603"><g transform="translate(-139.79728,-91.76438)"><g fill="#8fc4f0" fill-rule="evenodd" stroke="#000000" stroke-miterlimit="10"><path d="M240.30303,179.05041h-100l0.02,-1.75l0.04,-1.74l0.08,-1.74l0.1,-1.75l0.14,-1.74l0.17,-1.73l0.2,-1.74l0.22,-1.73l0.26,-1.72l0.29,-1.72l0.32,-1.72l0.35,-1.71l0.37,-1.71l0.41,-1.69l0.44,-1.69l0.46,-1.68l0.5,-1.68l0.52,-1.66l0.56,-1.66l0.58,-1.64l0.61,-1.64l0.64,-1.62l0.67,-1.61l0.7,-1.6l0.72,-1.59l0.75,-1.58l0.78,-1.56l0.81,-1.55l0.83,-1.53l0.86,-1.52l0.88,-1.5l0.92,-1.49l0.93,-1.47l0.97,-1.46l0.98,-1.44l1.02,-1.42l1.04,-1.4l1.06,-1.39l1.09,-1.36l1.11,-1.35l1.13,-1.33l1.16,-1.3l1.17,-1.29l1.21,-1.27l1.22,-1.24l1.24,-1.22l1.27,-1.21l1.29,-1.17l1.3,-1.16l1.33,-1.13l1.35,-1.11l1.36,-1.09l1.39,-1.06l1.4,-1.04l1.42,-1.02l1.44,-0.98l1.46,-0.97l1.47,-0.93l1.49,-0.92l1.5,-0.88z"/></g></g></svg>