<svg xmlns="http://www.w3.org/2000/svg" fill="none" viewBox="0 0 202 202" height="202" width="202">
<path stroke="black" fill="white" d="M101 101L163.35 22.82L164.7 23.92L166.04 25.04L167.36 26.19L168.65 27.36L169.93 28.55L171.18 29.76L172.41 31L173.62 32.26L174.81 33.53L175.98 34.83L177.12 36.15L178.24 37.49L179.34 38.85L180.41 40.22L181.46 41.62L182.48 43.03L183.48 44.46L184.46 45.91L185.41 47.38L186.33 48.86L187.23 50.35L188.1 51.87L188.94 53.39L189.76 54.94L190.55 56.49L191.31 58.06L192.05 59.64L192.76 61.24L193.44 62.85L194.09 64.47L194.71 66.1L195.31 67.74L195.87 69.39L196.41 71.05L196.92 72.72L197.4 74.4L197.85 76.08L198.27 77.78L198.66 79.48L199.02 81.19L199.35 82.9L199.65 84.62L199.92 86.34L200.16 88.07L200.37 89.8L200.55 91.54L200.7 93.28L200.82 95.02L200.91 96.76L200.97 98.51L201 100.25L101 101Z" clip-rule="evenodd" fill-rule="evenodd"></path>
<path stroke="black" fill="white" d="M101 101H201L200.98 102.75L200.94 104.49L200.86 106.23L200.76 107.98L200.62 109.72L200.45 111.45L200.25 113.19L200.03 114.92L199.77 116.64L199.48 118.36L199.16 120.08L198.81 121.79L198.44 123.5L198.03 125.19L197.59 126.88L197.13 128.56L196.63 130.24L196.11 131.9L195.55 133.56L194.97 135.2L194.36 136.84L193.72 138.46L193.05 140.07L192.35 141.67L191.63 143.26L190.88 144.84L190.1 146.4L189.29 147.95L188.46 149.48L187.6 151L186.72 152.5L185.8 153.99L184.87 155.46L183.9 156.92L182.92 158.36L181.9 159.78L180.86 161.18L179.8 162.57L178.71 163.93L177.6 165.28L176.47 166.61L175.31 167.91L174.14 169.2L172.93 170.47L171.71 171.71L170.47 172.93L169.2 174.14L167.91 175.31L166.61 176.47L165.28 177.6L163.93 178.71L101 101Z" clip-rule="evenodd" fill-rule="evenodd"></path>
<path stroke="black" fill="white" d="M101 101L163.35 179.18L161.98 180.26L160.58 181.31L159.17 182.34L157.74 183.34L156.3 184.32L154.84 185.27L153.36 186.2L151.86 187.1L150.35 187.97L148.83 188.82L147.29 189.64L145.73 190.44L144.16 191.2L142.58 191.94L140.99 192.66L139.38 193.34L137.77 194L136.14 194.62L134.5 195.22L132.85 195.79L131.19 196.33L129.52 196.85L127.84 197.33L126.16 197.78L124.47 198.21L122.77 198.6L121.06 198.97L119.35 199.3L117.63 199.61L115.9 199.88L114.18 200.13L112.44 200.34L110.71 200.53L108.97 200.68L107.23 200.81L105.49 200.9L103.74 200.96L102 201H100.25L98.51 200.97L96.76 200.91L95.02 200.82L93.28 200.7L91.54 200.55L89.8 200.37L88.07 200.16L86.34 199.92L84.62 199.65L82.9 199.35L81.19 199.02L79.48 198.66L101 101Z" clip-rule="evenodd" fill-rule="evenodd"></path>
<path stroke="black" fill="white" d="M101 101L78.75 198.49L77.05 198.09L75.36 197.66L73.68 197.19L72 196.7L70.34 196.18L68.68 195.63L67.03 195.05L65.4 194.45L63.77 193.81L62.16 193.15L60.55 192.46L58.96 191.74L57.39 190.99L55.82 190.21L54.27 189.41L52.74 188.58L51.22 187.73L49.71 186.84L48.22 185.94L46.75 185L45.29 184.04L43.85 183.06L42.42 182.05L41.02 181.01L39.63 179.95L38.26 178.87L36.91 177.76L35.58 176.63L34.27 175.48L32.98 174.31L31.71 173.11L30.47 171.89L29.24 170.64L28.03 169.38L26.85 168.1L25.69 166.79L24.56 165.47L23.44 164.13L22.35 162.76L21.29 161.38L20.25 159.98L19.23 158.56L18.24 157.13L17.27 155.67L16.33 154.2L15.41 152.72L14.52 151.22L13.66 149.7L12.82 148.17L12.01 146.62L11.23 145.06L101 101Z" clip-rule="evenodd" fill-rule="evenodd"></path>
<path stroke="black" fill="#8FC4F0" d="M101 101L10.9 144.39L10.16 142.81L9.44 141.22L8.76 139.61L8.1 138L7.46 136.37L6.86 134.73L6.29 133.08L5.74 131.43L5.22 129.76L4.74 128.08L4.28 126.4L3.85 124.71L3.45 123.01L3.08 121.3L2.74 119.59L2.43 117.87L2.15 116.15L1.91 114.42L1.69 112.69L1.5 110.96L1.34 109.22L1.21 107.48L1.11 105.74L1.04 103.99L1.01 102.25L1 100.5L1.03 98.76L1.08 97.01L1.16 95.27L1.28 93.53L1.43 91.79L1.6 90.05L1.81 88.32L2.04 86.59L2.31 84.86L2.61 83.14L2.93 81.43L3.29 79.72L3.68 78.02L4.09 76.32L4.54 74.64L5.01 72.96L5.52 71.29L6.05 69.62L6.61 67.97L7.2 66.33L7.82 64.7L8.47 63.08L9.15 61.47L9.85 59.87L10.58 58.29L101 101Z" clip-rule="evenodd" fill-rule="evenodd"></path>
<path stroke="black" fill="#8FC4F0" d="M101 101L10.8999 57.61L11.6699 56.05L12.4699 54.49L13.2999 52.96L14.1499 51.43L15.0299 49.92L15.9299 48.43L16.8599 46.95L17.8199 45.49L18.7999 44.05L19.8099 42.63L20.8399 41.22L21.8899 39.83L22.9699 38.46L24.0799 37.1L25.1999 35.77L26.3499 34.46L27.5299 33.17L28.7199 31.89L29.9399 30.64L31.1799 29.41L32.4399 28.21L33.7199 27.02L35.0199 25.86L36.3399 24.72L37.6799 23.6L39.0399 22.51L40.4199 21.44L41.8199 20.39L43.2299 19.37L44.6699 18.38L46.1199 17.41L47.5899 16.46L49.0699 15.54L50.5699 14.65L52.0799 13.78L53.6099 12.94L55.1599 12.13L56.7199 11.34L58.2899 10.58L59.8699 9.84999L61.4699 9.14999L63.0799 8.46999L64.6999 7.81999L66.3299 7.19999L67.9699 6.60999L69.6199 6.04999L71.2899 5.51999L72.9599 5.00999L74.6399 4.53999L76.3199 4.08999L78.0199 3.67999L101 101Z" clip-rule="evenodd" fill-rule="evenodd"></path>
<path stroke="black" fill="#8FC4F0" d="M101 101L78.75 3.51L80.45 3.13L82.16 2.79L83.88 2.48L85.6 2.19L87.33 1.94L89.06 1.72L90.8 1.52L92.53 1.36L94.27 1.23L96.02 1.12L97.76 1.05L99.5 1.01L101.25 1L102.99 1.02L104.74 1.07L106.48 1.15L108.22 1.26L109.96 1.4L111.7 1.57L113.43 1.78L115.16 2.01L116.89 2.27L118.61 2.56L120.33 2.89L122.03 3.24L123.74 3.62L125.43 4.03L127.12 4.47L128.8 4.94L130.48 5.44L132.14 5.97L133.79 6.53L135.44 7.12L137.07 7.73L138.69 8.38L140.3 9.05L141.9 9.75L143.49 10.47L145.06 11.23L146.62 12.01L148.17 12.82L149.7 13.66L151.22 14.52L152.72 15.41L154.2 16.33L155.67 17.27L157.13 18.24L158.56 19.23L159.98 20.25L161.38 21.29L162.76 22.35L101 101Z" clip-rule="evenodd" fill-rule="evenodd"></path>
</svg>
