<svg version="1.1" xmlns="http://www.w3.org/2000/svg" xmlns:xlink="http://www.w3.org/1999/xlink" width="101.37041" height="101.50001" viewBox="0,0,101.37041,101.50001"><g transform="translate(-189.31479,-78.67352)"><g fill="#8fc4f0" fill-rule="evenodd" stroke="#000000" stroke-miterlimit="10"><path d="M240,179.17355l-50,-86.6l1.52,-0.86l1.53,-0.83l1.55,-0.81l1.56,-0.78l1.58,-0.75l1.59,-0.72l1.6,-0.7l1.61,-0.67l1.62,-0.64l1.64,-0.61l1.64,-0.58l1.66,-0.56l1.66,-0.52l1.68,-0.5l1.68,-0.46l1.69,-0.44l1.69,-0.41l1.71,-0.37l1.71,-0.35l1.72,-0.32l1.72,-0.29l1.72,-0.26l1.73,-0.22l1.74,-0.2l1.73,-0.17l1.74,-0.14l1.75,-0.1l1.74,-0.08l1.74,-0.04l1.75,-0.02l1.75,0.02l1.74,0.04l1.74,0.08l1.75,0.1l1.74,0.14l1.73,0.17l1.74,0.2l1.73,0.22l1.72,0.26l1.72,0.29l1.72,0.32l1.71,0.35l1.71,0.37l1.69,0.41l1.69,0.44l1.68,0.46l1.68,0.5l1.66,0.52l1.66,0.56l1.64,0.58l1.64,0.61l1.62,0.64l1.61,0.67l1.6,0.7l1.59,0.72l1.58,0.75l1.56,0.78l1.55,0.81l1.53,0.83l1.52,0.86z"/></g></g></svg>