<svg xmlns="http://www.w3.org/2000/svg" fill="none" viewBox="0 0 92 100" height="100" width="92">
<path stroke="black" fill="#FFFF00" d="M91.1 98.32L1 54.93L1.77 53.37L2.57 51.81L3.4 50.28L4.25 48.75L5.13 47.24L6.03 45.75L6.96 44.27L7.92 42.81L8.9 41.37L9.91 39.95L10.94 38.54L11.99 37.15L13.07 35.78L14.18 34.42L15.3 33.09L16.45 31.78L17.63 30.49L18.82 29.21L20.04 27.96L21.28 26.73L22.54 25.53L23.82 24.34L25.12 23.18L26.44 22.04L27.78 20.92L29.14 19.83L30.52 18.76L31.92 17.71L33.33 16.69L34.77 15.7L36.22 14.73L37.69 13.78L39.17 12.86L40.67 11.97L42.18 11.1L43.71 10.26L45.26 9.45L46.82 8.66L48.39 7.9L49.97 7.17L51.57 6.47L53.18 5.79L54.8 5.14L56.43 4.52L58.07 3.93L59.72 3.37L61.39 2.84L63.06 2.33L64.74 1.86L66.42 1.41L68.12 1L91.1 98.32Z" clip-rule="evenodd" fill-rule="evenodd"></path>
</svg>
