<svg version="1.1" xmlns="http://www.w3.org/2000/svg" xmlns:xlink="http://www.w3.org/1999/xlink" width="101.66147" height="87.43725" viewBox="0,0,101.66147,87.43725"><g transform="translate(-139.8981,-136.33253)"><g fill="#8fc4f0" fill-rule="evenodd" stroke="#000000" stroke-miterlimit="10"><path d="M240.39812,179.71l-90.1,43.39l-0.74,-1.58l-0.72,-1.59l-0.68,-1.61l-0.66,-1.61l-0.64,-1.63l-0.6,-1.64l-0.57,-1.65l-0.55,-1.65l-0.52,-1.67l-0.48,-1.68l-0.46,-1.68l-0.43,-1.69l-0.4,-1.7l-0.37,-1.71l-0.34,-1.71l-0.31,-1.72l-0.28,-1.72l-0.24,-1.73l-0.22,-1.73l-0.19,-1.73l-0.16,-1.74l-0.13,-1.74l-0.1,-1.74l-0.07,-1.75l-0.03,-1.74l-0.01,-1.75l0.03,-1.74l0.05,-1.75l0.08,-1.74l0.12,-1.74l0.15,-1.74l0.17,-1.74l0.21,-1.73l0.23,-1.73l0.27,-1.73l0.3,-1.72l0.32,-1.71l0.36,-1.71l0.39,-1.7l0.41,-1.7l0.45,-1.68l0.47,-1.68l0.51,-1.67l0.53,-1.67l0.56,-1.65l0.59,-1.64l0.62,-1.63l0.65,-1.62l0.68,-1.61l0.7,-1.6l0.73,-1.58z"/></g></g></svg>