<svg version="1.1" xmlns="http://www.w3.org/2000/svg" xmlns:xlink="http://www.w3.org/1999/xlink" width="71.91999" height="101.71285" viewBox="0,0,71.91999,101.71285"><g transform="translate(-167.95891,-79.89238)"><g fill="#ffff00" fill-rule="evenodd" stroke="#000000" stroke-miterlimit="10"><path d="M239.3789,180.39812l-70.71,-70.71l1.24,-1.22l1.27,-1.21l1.29,-1.17l1.3,-1.16l1.33,-1.13l1.35,-1.11l1.36,-1.09l1.39,-1.06l1.4,-1.04l1.42,-1.02l1.44,-0.98l1.46,-0.97l1.47,-0.93l1.49,-0.92l1.5,-0.88l1.52,-0.86l1.53,-0.83l1.55,-0.81l1.56,-0.78l1.58,-0.75l1.59,-0.72l1.6,-0.7l1.61,-0.67l1.62,-0.64l1.64,-0.61l1.64,-0.58l1.66,-0.56l1.66,-0.52l1.68,-0.5l1.68,-0.46l1.69,-0.44l1.69,-0.41l1.71,-0.37l1.71,-0.35l1.72,-0.32l1.72,-0.29l1.72,-0.26l1.73,-0.22l1.74,-0.2l1.73,-0.17l1.74,-0.14l1.75,-0.1l1.74,-0.08l1.74,-0.04l1.75,-0.02z"/></g></g></svg>