<svg xmlns="http://www.w3.org/2000/svg" fill="none" viewBox="0 0 202 199" height="199" width="202">
<path stroke="black" fill="white" d="M101 98.3201L163.35 20.1401L164.7 21.2401L166.04 22.3601L167.36 23.5101L168.65 24.6801L169.93 25.8701L171.18 27.0801L172.41 28.3201L173.62 29.5801L174.81 30.8501L175.98 32.1501L177.12 33.4701L178.24 34.8101L179.34 36.1701L180.41 37.5401L181.46 38.9401L182.48 40.3501L183.48 41.7801L184.46 43.2301L185.41 44.7001L186.33 46.1801L187.23 47.6701L188.1 49.1901L188.94 50.7101L189.76 52.2601L190.55 53.8101L191.31 55.3801L192.05 56.9601L192.76 58.5601L193.44 60.1701L194.09 61.7901L194.71 63.4201L195.31 65.0601L195.87 66.7101L196.41 68.3701L196.92 70.0401L197.4 71.7201L197.85 73.4001L198.27 75.1001L198.66 76.8001L199.02 78.5101L199.35 80.2201L199.65 81.9401L199.92 83.6601L200.16 85.3901L200.37 87.1201L200.55 88.8601L200.7 90.6001L200.82 92.3401L200.91 94.0801L200.97 95.8301L201 97.5701L101 98.3201Z" clip-rule="evenodd" fill-rule="evenodd"></path>
<path stroke="black" fill="white" d="M101 98.3201H201L200.98 100.07L200.94 101.81L200.86 103.55L200.76 105.3L200.62 107.04L200.45 108.77L200.25 110.51L200.03 112.24L199.77 113.96L199.48 115.68L199.16 117.4L198.81 119.11L198.44 120.82L198.03 122.51L197.59 124.2L197.13 125.88L196.63 127.56L196.11 129.22L195.55 130.88L194.97 132.52L194.36 134.16L193.72 135.78L193.05 137.39L192.35 138.99L191.63 140.58L190.88 142.16L190.1 143.72L189.29 145.27L188.46 146.8L187.6 148.32L186.72 149.82L185.8 151.31L184.87 152.78L183.9 154.24L182.92 155.68L181.9 157.1L180.86 158.5L179.8 159.89L178.71 161.25L177.6 162.6L176.47 163.93L175.31 165.23L174.14 166.52L172.93 167.79L171.71 169.03L170.47 170.25L169.2 171.46L167.91 172.63L166.61 173.79L165.28 174.92L163.93 176.03L101 98.3201Z" clip-rule="evenodd" fill-rule="evenodd"></path>
<path stroke="black" fill="white" d="M101 98.3201L163.35 176.5L161.98 177.58L160.58 178.63L159.17 179.66L157.74 180.66L156.3 181.64L154.84 182.59L153.36 183.52L151.86 184.42L150.35 185.29L148.83 186.14L147.29 186.96L145.73 187.76L144.16 188.52L142.58 189.26L140.99 189.98L139.38 190.66L137.77 191.32L136.14 191.94L134.5 192.54L132.85 193.11L131.19 193.65L129.52 194.17L127.84 194.65L126.16 195.1L124.47 195.53L122.77 195.92L121.06 196.29L119.35 196.62L117.63 196.93L115.9 197.2L114.18 197.45L112.44 197.66L110.71 197.85L108.97 198L107.23 198.13L105.49 198.22L103.74 198.28L102 198.32H100.25L98.51 198.29L96.76 198.23L95.02 198.14L93.28 198.02L91.54 197.87L89.8 197.69L88.07 197.48L86.34 197.24L84.62 196.97L82.9 196.67L81.19 196.34L79.48 195.98L101 98.3201Z" clip-rule="evenodd" fill-rule="evenodd"></path>
<path stroke="black" fill="white" d="M101 98.3201L78.75 195.81L77.05 195.41L75.36 194.98L73.68 194.51L72 194.02L70.34 193.5L68.68 192.95L67.03 192.37L65.4 191.77L63.77 191.13L62.16 190.47L60.55 189.78L58.96 189.06L57.39 188.31L55.82 187.53L54.27 186.73L52.74 185.9L51.22 185.05L49.71 184.16L48.22 183.26L46.75 182.32L45.29 181.36L43.85 180.38L42.42 179.37L41.02 178.33L39.63 177.27L38.26 176.19L36.91 175.08L35.58 173.95L34.27 172.8L32.98 171.63L31.71 170.43L30.47 169.21L29.24 167.96L28.03 166.7L26.85 165.42L25.69 164.11L24.56 162.79L23.44 161.45L22.35 160.08L21.29 158.7L20.25 157.3L19.23 155.88L18.24 154.45L17.27 152.99L16.33 151.52L15.41 150.04L14.52 148.54L13.66 147.02L12.82 145.49L12.01 143.94L11.23 142.38L101 98.3201Z" clip-rule="evenodd" fill-rule="evenodd"></path>
<path stroke="black" fill="white" d="M101 98.3201L10.9 141.71L10.16 140.13L9.44 138.54L8.76 136.93L8.1 135.32L7.46 133.69L6.86 132.05L6.29 130.4L5.74 128.75L5.22 127.08L4.74 125.4L4.28 123.72L3.85 122.03L3.45 120.33L3.08 118.62L2.74 116.91L2.43 115.19L2.15 113.47L1.91 111.74L1.69 110.01L1.5 108.28L1.34 106.54L1.21 104.8L1.11 103.06L1.04 101.31L1.01 99.5701L1 97.8201L1.03 96.0801L1.08 94.3301L1.16 92.5901L1.28 90.8501L1.43 89.1101L1.6 87.3701L1.81 85.6401L2.04 83.9101L2.31 82.1801L2.61 80.4601L2.93 78.7501L3.29 77.0401L3.68 75.3401L4.09 73.6401L4.54 71.9601L5.01 70.2801L5.52 68.6101L6.05 66.9401L6.61 65.2901L7.2 63.6501L7.82 62.0201L8.47 60.4001L9.15 58.7901L9.85 57.1901L10.58 55.6101L101 98.3201Z" clip-rule="evenodd" fill-rule="evenodd"></path>
<path stroke="black" fill="#8FC4F0" d="M101 98.32L10.8999 54.93L11.6699 53.37L12.4699 51.81L13.2999 50.28L14.1499 48.75L15.0299 47.24L15.9299 45.75L16.8599 44.27L17.8199 42.81L18.7999 41.37L19.8099 39.95L20.8399 38.54L21.8899 37.15L22.9699 35.78L24.0799 34.42L25.1999 33.09L26.3499 31.78L27.5299 30.49L28.7199 29.21L29.9399 27.96L31.1799 26.73L32.4399 25.53L33.7199 24.34L35.0199 23.18L36.3399 22.04L37.6799 20.92L39.0399 19.83L40.4199 18.76L41.8199 17.71L43.2299 16.69L44.6699 15.7L46.1199 14.73L47.5899 13.78L49.0699 12.86L50.5699 11.97L52.0799 11.1L53.6099 10.26L55.1599 9.45L56.7199 8.66L58.2899 7.9L59.8699 7.17L61.4699 6.47L63.0799 5.79L64.6999 5.14L66.3299 4.52L67.9699 3.93L69.6199 3.37L71.2899 2.84L72.9599 2.33L74.6399 1.86L76.3199 1.41L78.0199 1L101 98.32Z" clip-rule="evenodd" fill-rule="evenodd"></path>
<path stroke="black" fill="#8FC4F0" d="M101.25 101.32L79 3.83007L80.7 3.45007L82.41 3.11007L84.13 2.80007L85.85 2.51007L87.58 2.26007L89.31 2.04007L91.05 1.84007L92.78 1.68007L94.52 1.55007L96.27 1.44007L98.01 1.37007L99.75 1.33007L101.5 1.32007L103.24 1.34007L104.99 1.39007L106.73 1.47007L108.47 1.58007L110.21 1.72007L111.95 1.89007L113.68 2.10007L115.41 2.33007L117.14 2.59007L118.86 2.88007L120.58 3.21007L122.28 3.56007L123.99 3.94007L125.68 4.35007L127.37 4.79007L129.05 5.26007L130.73 5.76007L132.39 6.29007L134.04 6.85007L135.69 7.44007L137.32 8.05007L138.94 8.70007L140.55 9.37007L142.15 10.0701L143.74 10.7901L145.31 11.5501L146.87 12.3301L148.42 13.1401L149.95 13.9801L151.47 14.8401L152.97 15.7301L154.45 16.6501L155.92 17.5901L157.38 18.5601L158.81 19.5501L160.23 20.5701L161.63 21.6101L163.01 22.6701L101.25 101.32Z" clip-rule="evenodd" fill-rule="evenodd"></path>
</svg>
