<svg xmlns="http://www.w3.org/2000/svg" fill="none" viewBox="0 0 202 202" height="202" width="202">
<path stroke="black" fill="#D30000" d="M101 101H201L200.98 102.75L200.94 104.49L200.86 106.23L200.76 107.98L200.62 109.72L200.45 111.45L200.25 113.19L200.03 114.92L199.77 116.64L199.48 118.36L199.16 120.08L198.81 121.79L198.44 123.5L198.03 125.19L197.59 126.88L197.13 128.56L196.63 130.24L196.11 131.9L195.55 133.56L194.97 135.2L194.36 136.84L193.72 138.46L193.05 140.07L192.35 141.67L191.63 143.26L190.88 144.84L190.1 146.4L189.29 147.95L188.46 149.48L187.6 151L186.72 152.5L185.8 153.99L184.87 155.46L183.9 156.92L182.92 158.36L181.9 159.78L180.86 161.18L179.8 162.57L178.71 163.93L177.6 165.28L176.47 166.61L175.31 167.91L174.14 169.2L172.93 170.47L171.71 171.71L170.47 172.93L169.2 174.14L167.91 175.31L166.61 176.47L165.28 177.6L163.93 178.71L101 101Z" clip-rule="evenodd" fill-rule="evenodd"></path>
<path stroke="black" fill="#D30000" d="M101 101L163.35 179.18L161.98 180.26L160.58 181.31L159.17 182.34L157.74 183.34L156.3 184.32L154.84 185.27L153.36 186.2L151.86 187.1L150.35 187.97L148.83 188.82L147.29 189.64L145.73 190.44L144.16 191.2L142.58 191.94L140.99 192.66L139.38 193.34L137.77 194L136.14 194.62L134.5 195.22L132.85 195.79L131.19 196.33L129.52 196.85L127.84 197.33L126.16 197.78L124.47 198.21L122.77 198.6L121.06 198.97L119.35 199.3L117.63 199.61L115.9 199.88L114.18 200.13L112.44 200.34L110.71 200.53L108.97 200.68L107.23 200.81L105.49 200.9L103.74 200.96L102 201H100.25L98.51 200.97L96.76 200.91L95.02 200.82L93.28 200.7L91.54 200.55L89.8 200.37L88.07 200.16L86.34 199.92L84.62 199.65L82.9 199.35L81.19 199.02L79.48 198.66L101 101Z" clip-rule="evenodd" fill-rule="evenodd"></path>
<path stroke="black" fill="#D30000" d="M101 101L78.75 198.49L77.05 198.09L75.36 197.66L73.68 197.19L72 196.7L70.34 196.18L68.68 195.63L67.03 195.05L65.4 194.45L63.77 193.81L62.16 193.15L60.55 192.46L58.96 191.74L57.39 190.99L55.82 190.21L54.27 189.41L52.74 188.58L51.22 187.73L49.71 186.84L48.22 185.94L46.75 185L45.29 184.04L43.85 183.06L42.42 182.05L41.02 181.01L39.63 179.95L38.26 178.87L36.91 177.76L35.58 176.63L34.27 175.48L32.98 174.31L31.71 173.11L30.47 171.89L29.24 170.64L28.03 169.38L26.85 168.1L25.69 166.79L24.56 165.47L23.44 164.13L22.35 162.76L21.29 161.38L20.25 159.98L19.23 158.56L18.24 157.13L17.27 155.67L16.33 154.2L15.41 152.72L14.52 151.22L13.66 149.7L12.82 148.17L12.01 146.62L11.23 145.06L101 101Z" clip-rule="evenodd" fill-rule="evenodd"></path>
<path stroke="black" fill="#D30000" d="M101 101L10.9 144.39L10.16 142.81L9.44 141.22L8.76 139.61L8.1 138L7.46 136.37L6.86 134.73L6.29 133.08L5.74 131.43L5.22 129.76L4.74 128.08L4.28 126.4L3.85 124.71L3.45 123.01L3.08 121.3L2.74 119.59L2.43 117.87L2.15 116.15L1.91 114.42L1.69 112.69L1.5 110.96L1.34 109.22L1.21 107.48L1.11 105.74L1.04 103.99L1.01 102.25L1 100.5L1.03 98.76L1.08 97.01L1.16 95.27L1.28 93.53L1.43 91.79L1.6 90.05L1.81 88.32L2.04 86.59L2.31 84.86L2.61 83.14L2.93 81.43L3.29 79.72L3.68 78.02L4.09 76.32L4.54 74.64L5.01 72.96L5.52 71.29L6.05 69.62L6.61 67.97L7.2 66.33L7.82 64.7L8.47 63.08L9.15 61.47L9.85 59.87L10.58 58.29L101 101Z" clip-rule="evenodd" fill-rule="evenodd"></path>
<path stroke="black" fill="#D30000" d="M101 101L10.9 57.6102L11.67 56.0502L12.47 54.4902L13.3 52.9602L14.15 51.4302L15.03 49.9202L15.93 48.4302L16.86 46.9502L17.82 45.4902L18.8 44.0502L19.81 42.6302L20.84 41.2202L21.89 39.8302L22.97 38.4602L24.08 37.1002L25.2 35.7702L26.35 34.4602L27.53 33.1702L28.72 31.8902L29.94 30.6402L31.18 29.4102L32.44 28.2102L33.72 27.0202L35.02 25.8602L36.34 24.7202L37.68 23.6002L39.04 22.5102L40.42 21.4402L41.82 20.3902L43.23 19.3702L44.67 18.3802L46.12 17.4102L47.59 16.4602L49.07 15.5402L50.57 14.6502L52.08 13.7802L53.61 12.9402L55.16 12.1302L56.72 11.3402L58.29 10.5802L59.87 9.85018L61.47 9.15018L63.08 8.47018L64.7 7.82018L66.33 7.20018L67.97 6.61018L69.62 6.05018L71.29 5.52018L72.96 5.01018L74.64 4.54018L76.32 4.09018L78.02 3.68018L101 101Z" clip-rule="evenodd" fill-rule="evenodd"></path>
<path stroke="black" fill="white" d="M101 101L78.75 3.51L80.45 3.13L82.16 2.79L83.88 2.48L85.6 2.19L87.33 1.94L89.06 1.72L90.8 1.52L92.53 1.36L94.27 1.23L96.02 1.12L97.76 1.05L99.5 1.01L101.25 1L102.99 1.02L104.74 1.07L106.48 1.15L108.22 1.26L109.96 1.4L111.7 1.57L113.43 1.78L115.16 2.01L116.89 2.27L118.61 2.56L120.33 2.89L122.03 3.24L123.74 3.62L125.43 4.03L127.12 4.47L128.8 4.94L130.48 5.44L132.14 5.97L133.79 6.53L135.44 7.12L137.07 7.73L138.69 8.38L140.3 9.05L141.9 9.75L143.49 10.47L145.06 11.23L146.62 12.01L148.17 12.82L149.7 13.66L151.22 14.52L152.72 15.41L154.2 16.33L155.67 17.27L157.13 18.24L158.56 19.23L159.98 20.25L161.38 21.29L162.76 22.35L101 101Z" clip-rule="evenodd" fill-rule="evenodd"></path>
<path stroke="black" fill="white" d="M101 101L163.35 22.8198L164.7 23.9198L166.04 25.0398L167.36 26.1898L168.65 27.3598L169.93 28.5498L171.18 29.7598L172.41 30.9998L173.62 32.2598L174.81 33.5298L175.98 34.8298L177.12 36.1498L178.24 37.4898L179.34 38.8498L180.41 40.2198L181.46 41.6198L182.48 43.0298L183.48 44.4598L184.46 45.9098L185.41 47.3798L186.33 48.8598L187.23 50.3498L188.1 51.8698L188.94 53.3898L189.76 54.9398L190.55 56.4898L191.31 58.0598L192.05 59.6398L192.76 61.2398L193.44 62.8498L194.09 64.4698L194.71 66.0998L195.31 67.7398L195.87 69.3898L196.41 71.0498L196.92 72.7198L197.4 74.3998L197.85 76.0798L198.27 77.7798L198.66 79.4798L199.02 81.1898L199.35 82.8998L199.65 84.6198L199.92 86.3398L200.16 88.0698L200.37 89.7998L200.55 91.5398L200.7 93.2798L200.82 95.0198L200.91 96.7598L200.97 98.5098L201 100.25L101 101Z" clip-rule="evenodd" fill-rule="evenodd"></path>
</svg>
