<svg xmlns="http://www.w3.org/2000/svg" fill="none" viewBox="0 0 102 175" height="175" width="102">
<path stroke="black" fill="#FFFF00" d="M101 87.6L51 174.2L49.5 173.32L48.01 172.4L46.54 171.47L45.08 170.5L43.64 169.52L42.22 168.5L40.82 167.46L39.43 166.4L38.07 165.31L36.72 164.2L35.39 163.07L34.09 161.91L32.8 160.74L31.53 159.53L30.29 158.31L29.07 157.07L27.86 155.8L26.69 154.51L25.53 153.21L24.4 151.88L23.29 150.53L22.2 149.17L21.14 147.78L20.1 146.38L19.08 144.96L18.1 143.52L17.13 142.06L16.2 140.59L15.28 139.1L14.4 137.6L13.54 136.08L12.71 134.55L11.9 133L11.12 131.44L10.37 129.86L9.65 128.27L8.95 126.67L8.28 125.06L7.64 123.44L7.03 121.8L6.45 120.16L5.89 118.5L5.37 116.84L4.87 115.16L4.41 113.48L3.97 111.79L3.56 110.1L3.19 108.39L2.84 106.68L2.52 104.96L2.23 103.24L1.97 101.52L1.75 99.79L1.55 98.05L1.38 96.32L1.24 94.58L1.14 92.83L1.06 91.09L1.02 89.35L1 87.6L1.02 85.85L1.06 84.11L1.14 82.37L1.24 80.62L1.38 78.88L1.55 77.15L1.75 75.41L1.97 73.68L2.23 71.96L2.52 70.24L2.84 68.52L3.19 66.81L3.56 65.1L3.97 63.41L4.41 61.72L4.87 60.04L5.37 58.36L5.89 56.7L6.45 55.04L7.03 53.4L7.64 51.76L8.28 50.14L8.95 48.53L9.65 46.93L10.37 45.34L11.12 43.76L11.9 42.2L12.71 40.65L13.54 39.12L14.4 37.6L15.28 36.1L16.2 34.61L17.13 33.14L18.1 31.68L19.08 30.24L20.1 28.82L21.14 27.42L22.2 26.03L23.29 24.67L24.4 23.32L25.53 21.99L26.69 20.69L27.86 19.4L29.07 18.13L30.29 16.89L31.53 15.67L32.8 14.46L34.09 13.29L35.39 12.13L36.72 11L38.07 9.89L39.43 8.8L40.82 7.74L42.22 6.7L43.64 5.68L45.08 4.7L46.54 3.73L48.01 2.8L49.5 1.88L51 1L101 87.6Z" clip-rule="evenodd" fill-rule="evenodd"></path>
</svg>
