<svg version="1.1" xmlns="http://www.w3.org/2000/svg" xmlns:xlink="http://www.w3.org/1999/xlink" width="85.17133" height="101.63131" viewBox="0,0,85.17133,101.63131"><g transform="translate(-217.97281,-178.47057)"><g fill="#8fc4f0" fill-rule="evenodd" stroke="#000000" stroke-miterlimit="10"><path d="M240.08971,179.60188l62.35,78.18l-1.37,1.08l-1.4,1.05l-1.41,1.03l-1.43,1l-1.44,0.98l-1.46,0.95l-1.48,0.93l-1.5,0.9l-1.51,0.87l-1.52,0.85l-1.54,0.82l-1.56,0.8l-1.57,0.76l-1.58,0.74l-1.59,0.72l-1.61,0.68l-1.61,0.66l-1.63,0.62l-1.64,0.6l-1.65,0.57l-1.66,0.54l-1.67,0.52l-1.68,0.48l-1.68,0.45l-1.69,0.43l-1.7,0.39l-1.71,0.37l-1.71,0.33l-1.72,0.31l-1.73,0.27l-1.72,0.25l-1.74,0.21l-1.73,0.19l-1.74,0.15l-1.74,0.13l-1.74,0.09l-1.75,0.06l-1.74,0.04h-1.75l-1.74,-0.03l-1.75,-0.06l-1.74,-0.09l-1.74,-0.12l-1.74,-0.15l-1.74,-0.18l-1.73,-0.21l-1.73,-0.24l-1.72,-0.27l-1.72,-0.3l-1.71,-0.33l-1.71,-0.36z"/></g></g></svg>