<svg xmlns="http://www.w3.org/2000/svg" fill="none" viewBox="0 0 102 89" height="89" width="102">
<path stroke="black" fill="#8FC4F0" d="M101 87.6H1L1.02 85.85L1.06 84.11L1.14 82.37L1.24 80.62L1.38 78.88L1.55 77.15L1.75 75.41L1.97 73.68L2.23 71.96L2.52 70.24L2.84 68.52L3.19 66.81L3.56 65.1L3.97 63.41L4.41 61.72L4.87 60.04L5.37 58.36L5.89 56.7L6.45 55.04L7.03 53.4L7.64 51.76L8.28 50.14L8.95 48.53L9.65 46.93L10.37 45.34L11.12 43.76L11.9 42.2L12.71 40.65L13.54 39.12L14.4 37.6L15.28 36.1L16.2 34.61L17.13 33.14L18.1 31.68L19.08 30.24L20.1 28.82L21.14 27.42L22.2 26.03L23.29 24.67L24.4 23.32L25.53 21.99L26.69 20.69L27.86 19.4L29.07 18.13L30.29 16.89L31.53 15.67L32.8 14.46L34.09 13.29L35.39 12.13L36.72 11L38.07 9.89L39.43 8.8L40.82 7.74L42.22 6.7L43.64 5.68L45.08 4.7L46.54 3.73L48.01 2.8L49.5 1.88L51 1L101 87.6Z" clip-rule="evenodd" fill-rule="evenodd"></path>
</svg>
