<svg version="1.1" xmlns="http://www.w3.org/2000/svg" xmlns:xlink="http://www.w3.org/1999/xlink" width="201.01149" height="101.00003" viewBox="0,0,201.01149,101.00003"><g transform="translate(-139.49425,-79.803)"><g fill="#34c759" fill-rule="evenodd" stroke="#000000" stroke-miterlimit="10"><path d="M240,180.30303h-100l0.02,-1.75l0.04,-1.74l0.08,-1.74l0.1,-1.75l0.14,-1.74l0.17,-1.73l0.2,-1.74l0.22,-1.73l0.26,-1.72l0.29,-1.72l0.32,-1.72l0.35,-1.71l0.37,-1.71l0.41,-1.69l0.44,-1.69l0.46,-1.68l0.5,-1.68l0.52,-1.66l0.56,-1.66l0.58,-1.64l0.61,-1.64l0.64,-1.62l0.67,-1.61l0.7,-1.6l0.72,-1.59l0.75,-1.58l0.78,-1.56l0.81,-1.55l0.83,-1.53l0.86,-1.52l0.88,-1.5l0.92,-1.49l0.93,-1.47l0.97,-1.46l0.98,-1.44l1.02,-1.42l1.04,-1.4l1.06,-1.39l1.09,-1.36l1.11,-1.35l1.13,-1.33l1.16,-1.3l1.17,-1.29l1.21,-1.27l1.22,-1.24l1.24,-1.22l1.27,-1.21l1.29,-1.17l1.3,-1.16l1.33,-1.13l1.35,-1.11l1.36,-1.09l1.39,-1.06l1.4,-1.04l1.42,-1.02l1.44,-0.98l1.46,-0.97l1.47,-0.93l1.49,-0.92l1.5,-0.88l1.52,-0.86l1.53,-0.83l1.55,-0.81l1.56,-0.78l1.58,-0.75l1.59,-0.72l1.6,-0.7l1.61,-0.67l1.62,-0.64l1.64,-0.61l1.64,-0.58l1.66,-0.56l1.66,-0.52l1.68,-0.5l1.68,-0.46l1.69,-0.44l1.69,-0.41l1.71,-0.37l1.71,-0.35l1.72,-0.32l1.72,-0.29l1.72,-0.26l1.73,-0.22l1.74,-0.2l1.73,-0.17l1.74,-0.14l1.75,-0.1l1.74,-0.08l1.74,-0.04l1.75,-0.02l1.75,0.02l1.74,0.04l1.74,0.08l1.75,0.1l1.74,0.14l1.73,0.17l1.74,0.2l1.73,0.22l1.72,0.26l1.72,0.29l1.72,0.32l1.71,0.35l1.71,0.37l1.69,0.41l1.69,0.44l1.68,0.46l1.68,0.5l1.66,0.52l1.66,0.56l1.64,0.58l1.64,0.61l1.62,0.64l1.61,0.67l1.6,0.7l1.59,0.72l1.58,0.75l1.56,0.78l1.55,0.81l1.53,0.83l1.52,0.86l1.5,0.88l1.49,0.92l1.47,0.93l1.46,0.97l1.44,0.98l1.42,1.02l1.4,1.04l1.39,1.06l1.36,1.09l1.35,1.11l1.33,1.13l1.3,1.16l1.29,1.17l1.27,1.21l1.24,1.22l1.22,1.24l1.21,1.27l1.17,1.29l1.16,1.3l1.13,1.33l1.11,1.35l1.09,1.36l1.06,1.39l1.04,1.4l1.02,1.42l0.98,1.44l0.97,1.46l0.93,1.47l0.92,1.49l0.88,1.5l0.86,1.52l0.83,1.53l0.81,1.55l0.78,1.56l0.75,1.58l0.72,1.59l0.7,1.6l0.67,1.61l0.64,1.62l0.61,1.64l0.58,1.64l0.56,1.66l0.52,1.66l0.5,1.68l0.46,1.68l0.44,1.69l0.41,1.69l0.37,1.71l0.35,1.71l0.32,1.72l0.29,1.72l0.26,1.72l0.22,1.73l0.2,1.74l0.17,1.73l0.14,1.74l0.1,1.75l0.08,1.74l0.04,1.74l0.02,1.75z"/></g></g></svg>