<svg version="1.1" xmlns="http://www.w3.org/2000/svg" xmlns:xlink="http://www.w3.org/1999/xlink" width="101.07739" height="174.57207" viewBox="0,0,101.07739,174.57207"><g transform="translate(-139.73455,-92.81397)"><g fill="#34c759" fill-rule="evenodd" stroke="#000000" stroke-miterlimit="10"><path d="M240.23458,180.1l-50,86.6l-1.5,-0.88l-1.49,-0.92l-1.47,-0.93l-1.46,-0.97l-1.44,-0.98l-1.42,-1.02l-1.4,-1.04l-1.39,-1.06l-1.36,-1.09l-1.35,-1.11l-1.33,-1.13l-1.3,-1.16l-1.29,-1.17l-1.27,-1.21l-1.24,-1.22l-1.22,-1.24l-1.21,-1.27l-1.17,-1.29l-1.16,-1.3l-1.13,-1.33l-1.11,-1.35l-1.09,-1.36l-1.06,-1.39l-1.04,-1.4l-1.02,-1.42l-0.98,-1.44l-0.97,-1.46l-0.93,-1.47l-0.92,-1.49l-0.88,-1.5l-0.86,-1.52l-0.83,-1.53l-0.81,-1.55l-0.78,-1.56l-0.75,-1.58l-0.72,-1.59l-0.7,-1.6l-0.67,-1.61l-0.64,-1.62l-0.61,-1.64l-0.58,-1.64l-0.56,-1.66l-0.52,-1.66l-0.5,-1.68l-0.46,-1.68l-0.44,-1.69l-0.41,-1.69l-0.37,-1.71l-0.35,-1.71l-0.32,-1.72l-0.29,-1.72l-0.26,-1.72l-0.22,-1.73l-0.2,-1.74l-0.17,-1.73l-0.14,-1.74l-0.1,-1.75l-0.08,-1.74l-0.04,-1.74l-0.02,-1.75l0.02,-1.75l0.04,-1.74l0.08,-1.74l0.1,-1.75l0.14,-1.74l0.17,-1.73l0.2,-1.74l0.22,-1.73l0.26,-1.72l0.29,-1.72l0.32,-1.72l0.35,-1.71l0.37,-1.71l0.41,-1.69l0.44,-1.69l0.46,-1.68l0.5,-1.68l0.52,-1.66l0.56,-1.66l0.58,-1.64l0.61,-1.64l0.64,-1.62l0.67,-1.61l0.7,-1.6l0.72,-1.59l0.75,-1.58l0.78,-1.56l0.81,-1.55l0.83,-1.53l0.86,-1.52l0.88,-1.5l0.92,-1.49l0.93,-1.47l0.97,-1.46l0.98,-1.44l1.02,-1.42l1.04,-1.4l1.06,-1.39l1.09,-1.36l1.11,-1.35l1.13,-1.33l1.16,-1.3l1.17,-1.29l1.21,-1.27l1.22,-1.24l1.24,-1.22l1.27,-1.21l1.29,-1.17l1.3,-1.16l1.33,-1.13l1.35,-1.11l1.36,-1.09l1.39,-1.06l1.4,-1.04l1.42,-1.02l1.44,-0.98l1.46,-0.97l1.47,-0.93l1.49,-0.92l1.5,-0.88z"/></g></g></svg>