<svg xmlns="http://www.w3.org/2000/svg" fill="none" viewBox="0 0 202 202" height="202" width="202">
<path stroke="black" fill="white" d="M101 101H201L200.98 102.75L200.94 104.49L200.86 106.23L200.76 107.98L200.62 109.72L200.45 111.45L200.25 113.19L200.03 114.92L199.77 116.64L199.48 118.36L199.16 120.08L198.81 121.79L198.44 123.5L198.03 125.19L197.59 126.88L197.13 128.56L196.63 130.24L196.11 131.9L195.55 133.56L194.97 135.2L194.36 136.84L193.72 138.46L193.05 140.07L192.35 141.67L191.63 143.26L190.88 144.84L190.1 146.4L189.29 147.95L188.46 149.48L187.6 151L186.72 152.5L185.8 153.99L184.87 155.46L183.9 156.92L182.92 158.36L181.9 159.78L180.86 161.18L179.8 162.57L178.71 163.93L177.6 165.28L176.47 166.61L175.31 167.91L174.14 169.2L172.93 170.47L171.71 171.71L170.47 172.93L169.2 174.14L167.91 175.31L166.61 176.47L165.28 177.6L163.93 178.71L162.57 179.8L161.18 180.86L159.78 181.9L158.36 182.92L156.92 183.9L155.46 184.87L153.99 185.8L152.5 186.72L151 187.6L149.48 188.46L147.95 189.29L146.4 190.1L144.84 190.88L143.26 191.63L141.67 192.35L140.07 193.05L138.46 193.72L136.84 194.36L135.2 194.97L133.56 195.55L131.9 196.11L101 101Z" clip-rule="evenodd" fill-rule="evenodd"></path>
<path stroke="black" fill="white" d="M101 101L131.9 196.11L130.24 196.63L128.56 197.13L126.88 197.59L125.19 198.03L123.5 198.44L121.79 198.81L120.08 199.16L118.36 199.48L116.64 199.77L114.92 200.03L113.19 200.25L111.45 200.45L109.72 200.62L107.98 200.76L106.23 200.86L104.49 200.94L102.75 200.98L101 201L99.2501 200.98L97.5101 200.94L95.7701 200.86L94.0201 200.76L92.2801 200.62L90.5501 200.45L88.8101 200.25L87.0801 200.03L85.3601 199.77L83.6401 199.48L81.9201 199.16L80.2101 198.81L78.5001 198.44L76.8101 198.03L75.1201 197.59L73.4401 197.13L71.7601 196.63L70.1001 196.11L68.4401 195.55L66.8001 194.97L65.1601 194.36L63.5401 193.72L61.9301 193.05L60.3301 192.35L58.7401 191.63L57.1601 190.88L55.6001 190.1L54.0501 189.29L52.5201 188.46L51.0001 187.6L49.5001 186.72L48.0101 185.8L46.5401 184.87L45.0801 183.9L43.6401 182.92L42.2201 181.9L40.8201 180.86L39.4301 179.8L38.0701 178.71L36.7201 177.6L35.3901 176.47L34.0901 175.31L32.8001 174.14L31.5301 172.93L30.2901 171.71L29.0701 170.47L27.8601 169.2L26.6901 167.91L25.5301 166.61L24.4001 165.28L23.2901 163.93L22.2001 162.57L21.1401 161.18L20.1001 159.78L101 101Z" clip-rule="evenodd" fill-rule="evenodd"></path>
<path stroke="black" fill="white" d="M101 101L20.1 159.78L19.08 158.36L18.1 156.92L17.13 155.46L16.2 153.99L15.28 152.5L14.4 151L13.54 149.48L12.71 147.95L11.9 146.4L11.12 144.84L10.37 143.26L9.65 141.67L8.95 140.07L8.28 138.46L7.64 136.84L7.03 135.2L6.45 133.56L5.89 131.9L5.37 130.24L4.87 128.56L4.41 126.88L3.97 125.19L3.56 123.5L3.19 121.79L2.84 120.08L2.52 118.36L2.23 116.64L1.97 114.92L1.75 113.19L1.55 111.45L1.38 109.72L1.24 107.98L1.14 106.23L1.06 104.49L1.02 102.75L1 101L1.02 99.2497L1.06 97.5097L1.14 95.7697L1.24 94.0197L1.38 92.2797L1.55 90.5497L1.75 88.8097L1.97 87.0797L2.23 85.3597L2.52 83.6397L2.84 81.9197L3.19 80.2097L3.56 78.4997L3.97 76.8097L4.41 75.1197L4.87 73.4397L5.37 71.7597L5.89 70.0997L6.45 68.4397L7.03 66.7997L7.64 65.1597L8.28 63.5397L8.95 61.9297L9.65 60.3297L10.37 58.7397L11.12 57.1597L11.9 55.5997L12.71 54.0497L13.54 52.5197L14.4 50.9997L15.28 49.4997L16.2 48.0097L17.13 46.5397L18.1 45.0797L19.08 43.6397L20.1 42.2197L101 101Z" clip-rule="evenodd" fill-rule="evenodd"></path>
<path stroke="black" fill="white" d="M101 101L20.1001 42.22L21.1401 40.82L22.2001 39.43L23.2901 38.07L24.4001 36.72L25.5301 35.39L26.6901 34.09L27.8601 32.8L29.0701 31.53L30.2901 30.29L31.5301 29.07L32.8001 27.86L34.0901 26.69L35.3901 25.53L36.7201 24.4L38.0701 23.29L39.4301 22.2L40.8201 21.14L42.2201 20.1L43.6401 19.08L45.0801 18.1L46.5401 17.13L48.0101 16.2L49.5001 15.28L51.0001 14.4L52.5201 13.54L54.0501 12.71L55.6001 11.9L57.1601 11.12L58.7401 10.37L60.3301 9.65L61.9301 8.95L63.5401 8.28L65.1601 7.64L66.8001 7.03L68.4401 6.45L70.1001 5.89L71.7601 5.37L73.4401 4.87L75.1201 4.41L76.8101 3.97L78.5001 3.56L80.2101 3.19L81.9201 2.84L83.6401 2.52L85.3601 2.23L87.0801 1.97L88.8101 1.75L90.5501 1.55L92.2801 1.38L94.0201 1.24L95.7701 1.14L97.5101 1.06L99.2501 1.02L101 1L102.75 1.02L104.49 1.06L106.23 1.14L107.98 1.24L109.72 1.38L111.45 1.55L113.19 1.75L114.92 1.97L116.64 2.23L118.36 2.52L120.08 2.84L121.79 3.19L123.5 3.56L125.19 3.97L126.88 4.41L128.56 4.87L130.24 5.37L131.9 5.89L101 101Z" clip-rule="evenodd" fill-rule="evenodd"></path>
<path stroke="black" fill="white" d="M101 101L131.9 5.89014L133.56 6.45014L135.2 7.03014L136.84 7.64014L138.46 8.28014L140.07 8.95014L141.67 9.65014L143.26 10.3701L144.84 11.1201L146.4 11.9001L147.95 12.7101L149.48 13.5401L151 14.4001L152.5 15.2801L153.99 16.2001L155.46 17.1301L156.92 18.1001L158.36 19.0801L159.78 20.1001L161.18 21.1401L162.57 22.2001L163.93 23.2901L165.28 24.4001L166.61 25.5301L167.91 26.6901L169.2 27.8601L170.47 29.0701L171.71 30.2901L172.93 31.5301L174.14 32.8001L175.31 34.0901L176.47 35.3901L177.6 36.7201L178.71 38.0701L179.8 39.4301L180.86 40.8201L181.9 42.2201L182.92 43.6401L183.9 45.0801L184.87 46.5401L185.8 48.0101L186.72 49.5001L187.6 51.0001L188.46 52.5201L189.29 54.0501L190.1 55.6001L190.88 57.1601L191.63 58.7401L192.35 60.3301L193.05 61.9301L193.72 63.5401L194.36 65.1601L194.97 66.8001L195.55 68.4401L196.11 70.1001L196.63 71.7601L197.13 73.4401L197.59 75.1201L198.03 76.8101L198.44 78.5001L198.81 80.2101L199.16 81.9201L199.48 83.6401L199.77 85.3601L200.03 87.0801L200.25 88.8101L200.45 90.5501L200.62 92.2801L200.76 94.0201L200.86 95.7701L200.94 97.5101L200.98 99.2501L201 101H101Z" clip-rule="evenodd" fill-rule="evenodd"></path>
</svg>
