<svg version="1.1" xmlns="http://www.w3.org/2000/svg" xmlns:xlink="http://www.w3.org/1999/xlink" width="91.16318" height="99.00271" viewBox="0,0,91.16318,99.00271"><g transform="translate(-149.87042,-178.52763)"><g fill="#8fc4f0" fill-rule="evenodd" stroke="#000000" stroke-miterlimit="10"><path d="M240.3129,179.43834l-22.25,97.49l-1.7,-0.4l-1.69,-0.43l-1.68,-0.47l-1.68,-0.49l-1.66,-0.52l-1.66,-0.55l-1.65,-0.58l-1.63,-0.6l-1.63,-0.64l-1.61,-0.66l-1.61,-0.69l-1.59,-0.72l-1.57,-0.75l-1.57,-0.78l-1.55,-0.8l-1.53,-0.83l-1.52,-0.85l-1.51,-0.89l-1.49,-0.9l-1.47,-0.94l-1.46,-0.96l-1.44,-0.98l-1.43,-1.01l-1.4,-1.04l-1.39,-1.06l-1.37,-1.08l-1.35,-1.11l-1.33,-1.13l-1.31,-1.15l-1.29,-1.17l-1.27,-1.2l-1.24,-1.22l-1.23,-1.25l-1.21,-1.26l-1.18,-1.28l-1.16,-1.31l-1.13,-1.32l-1.12,-1.34l-1.09,-1.37l-1.06,-1.38l-1.04,-1.4l-1.02,-1.42l-0.99,-1.43l-0.97,-1.46l-0.94,-1.47l-0.92,-1.48l-0.89,-1.5l-0.86,-1.52l-0.84,-1.53l-0.81,-1.55l-0.78,-1.56z"/></g></g></svg>