<svg version="1.1" xmlns="http://www.w3.org/2000/svg" xmlns:xlink="http://www.w3.org/1999/xlink" width="101.35066" height="118.96001" viewBox="0,0,101.35066,118.96001"><g transform="translate(-138.40747,-120.3)"><g fill="#d30000" fill-rule="evenodd" stroke="#000000" stroke-miterlimit="10"><path d="M238.90751,179.78l-80.9,58.78l-1.02,-1.42l-0.98,-1.44l-0.97,-1.46l-0.93,-1.47l-0.92,-1.49l-0.88,-1.5l-0.86,-1.52l-0.83,-1.53l-0.81,-1.55l-0.78,-1.56l-0.75,-1.58l-0.72,-1.59l-0.7,-1.6l-0.67,-1.61l-0.64,-1.62l-0.61,-1.64l-0.58,-1.64l-0.56,-1.66l-0.52,-1.66l-0.5,-1.68l-0.46,-1.68l-0.44,-1.69l-0.41,-1.69l-0.37,-1.71l-0.35,-1.71l-0.32,-1.72l-0.29,-1.72l-0.26,-1.72l-0.22,-1.73l-0.2,-1.74l-0.17,-1.73l-0.14,-1.74l-0.1,-1.75l-0.08,-1.74l-0.04,-1.74l-0.02,-1.75l0.02,-1.75l0.04,-1.74l0.08,-1.74l0.1,-1.75l0.14,-1.74l0.17,-1.73l0.2,-1.74l0.22,-1.73l0.26,-1.72l0.29,-1.72l0.32,-1.72l0.35,-1.71l0.37,-1.71l0.41,-1.69l0.44,-1.69l0.46,-1.68l0.5,-1.68l0.52,-1.66l0.56,-1.66l0.58,-1.64l0.61,-1.64l0.64,-1.62l0.67,-1.61l0.7,-1.6l0.72,-1.59l0.75,-1.58l0.78,-1.56l0.81,-1.55l0.83,-1.53l0.86,-1.52l0.88,-1.5l0.92,-1.49l0.93,-1.47l0.97,-1.46l0.98,-1.44l1.02,-1.42z"/></g></g></svg>