<svg xmlns="http://www.w3.org/2000/svg" fill="none" viewBox="0 0 202 202" height="202" width="202">
<path stroke="black" fill="white" d="M101 101H201L200.98 102.75L200.94 104.49L200.86 106.23L200.76 107.98L200.62 109.72L200.45 111.45L200.25 113.19L200.03 114.92L199.77 116.64L199.48 118.36L199.16 120.08L198.81 121.79L198.44 123.5L198.03 125.19L197.59 126.88L197.13 128.56L196.63 130.24L196.11 131.9L195.55 133.56L194.97 135.2L194.36 136.84L193.72 138.46L193.05 140.07L192.35 141.67L191.63 143.26L190.88 144.84L190.1 146.4L189.29 147.95L188.46 149.48L187.6 151L186.72 152.5L185.8 153.99L184.87 155.46L183.9 156.92L182.92 158.36L181.9 159.78L180.86 161.18L179.8 162.57L178.71 163.93L177.6 165.28L101 101Z" clip-rule="evenodd" fill-rule="evenodd"></path>
<path stroke="black" fill="white" d="M101 101L177.6 165.28L176.47 166.61L175.31 167.91L174.14 169.2L172.93 170.47L171.71 171.71L170.47 172.93L169.2 174.14L167.91 175.31L166.61 176.47L165.28 177.6L163.93 178.71L162.57 179.8L161.18 180.86L159.78 181.9L158.36 182.92L156.92 183.9L155.46 184.87L153.99 185.8L152.5 186.72L151 187.6L149.48 188.46L147.95 189.29L146.4 190.1L144.84 190.88L143.26 191.63L141.67 192.35L140.07 193.05L138.46 193.72L136.84 194.36L135.2 194.97L133.56 195.55L131.9 196.11L130.24 196.63L128.56 197.13L126.88 197.59L125.19 198.03L123.5 198.44L121.79 198.81L120.08 199.16L118.36 199.48L101 101Z" clip-rule="evenodd" fill-rule="evenodd"></path>
<path stroke="black" fill="white" d="M101 101L118.36 199.48L116.64 199.77L114.92 200.03L113.19 200.25L111.45 200.45L109.72 200.62L107.98 200.76L106.23 200.86L104.49 200.94L102.75 200.98L101 201L99.25 200.98L97.51 200.94L95.77 200.86L94.02 200.76L92.28 200.62L90.55 200.45L88.81 200.25L87.08 200.03L85.36 199.77L83.64 199.48L81.92 199.16L80.21 198.81L78.5 198.44L76.81 198.03L75.12 197.59L73.44 197.13L71.76 196.63L70.1 196.11L68.44 195.55L66.8 194.97L65.16 194.36L63.54 193.72L61.93 193.05L60.33 192.35L58.74 191.63L57.16 190.88L55.6 190.1L54.05 189.29L52.52 188.46L51 187.6L101 101Z" clip-rule="evenodd" fill-rule="evenodd"></path>
<path stroke="black" fill="#FFFF00" d="M101 101L51.0003 187.6L49.5003 186.72L48.0103 185.8L46.5403 184.87L45.0803 183.9L43.6403 182.92L42.2203 181.9L40.8203 180.86L39.4303 179.8L38.0703 178.71L36.7203 177.6L35.3903 176.47L34.0903 175.31L32.8003 174.14L31.5303 172.93L30.2903 171.71L29.0703 170.47L27.8603 169.2L26.6903 167.91L25.5303 166.61L24.4003 165.28L23.2903 163.93L22.2003 162.57L21.1403 161.18L20.1003 159.78L19.0803 158.36L18.1003 156.92L17.1303 155.46L16.2003 153.99L15.2803 152.5L14.4003 151L13.5403 149.48L12.7103 147.95L11.9003 146.4L11.1203 144.84L10.3703 143.26L9.65027 141.67L8.95027 140.07L8.28027 138.46L7.64027 136.84L7.03027 135.2L101 101Z" clip-rule="evenodd" fill-rule="evenodd"></path>
<path stroke="black" fill="#FFFF00" d="M101 101L7.03 135.2L6.45 133.56L5.89 131.9L5.37 130.24L4.87 128.56L4.41 126.88L3.97 125.19L3.56 123.5L3.19 121.79L2.84 120.08L2.52 118.36L2.23 116.64L1.97 114.92L1.75 113.19L1.55 111.45L1.38 109.72L1.24 107.98L1.14 106.23L1.06 104.49L1.02 102.75L1 101L1.02 99.25L1.06 97.51L1.14 95.77L1.24 94.02L1.38 92.28L1.55 90.55L1.75 88.81L1.97 87.08L2.23 85.36L2.52 83.64L2.84 81.92L3.19 80.21L3.56 78.5L3.97 76.81L4.41 75.12L4.87 73.44L5.37 71.76L5.89 70.1L6.45 68.44L7.03 66.8L101 101Z" clip-rule="evenodd" fill-rule="evenodd"></path>
<path stroke="black" fill="#FFFF00" d="M101 101L7.03027 66.7999L7.64027 65.1599L8.28027 63.5399L8.95027 61.9299L9.65027 60.3299L10.3703 58.7399L11.1203 57.1599L11.9003 55.5999L12.7103 54.0499L13.5403 52.5199L14.4003 50.9999L15.2803 49.4999L16.2003 48.0099L17.1303 46.5399L18.1003 45.0799L19.0803 43.6399L20.1003 42.2199L21.1403 40.8199L22.2003 39.4299L23.2903 38.0699L24.4003 36.7199L25.5303 35.3899L26.6903 34.0899L27.8603 32.7999L29.0703 31.5299L30.2903 30.2899L31.5303 29.0699L32.8003 27.8599L34.0903 26.6899L35.3903 25.5299L36.7203 24.3999L38.0703 23.2899L39.4303 22.1999L40.8203 21.1399L42.2203 20.0999L43.6403 19.0799L45.0803 18.0999L46.5403 17.1299L48.0103 16.1999L49.5003 15.2799L51.0003 14.3999L101 101Z" clip-rule="evenodd" fill-rule="evenodd"></path>
<path stroke="black" fill="white" d="M101 101L51 14.4L52.52 13.54L54.05 12.71L55.6 11.9L57.16 11.12L58.74 10.37L60.33 9.65L61.93 8.95L63.54 8.28L65.16 7.64L66.8 7.03L68.44 6.45L70.1 5.89L71.76 5.37L73.44 4.87L75.12 4.41L76.81 3.97L78.5 3.56L80.21 3.19L81.92 2.84L83.64 2.52L85.36 2.23L87.08 1.97L88.81 1.75L90.55 1.55L92.28 1.38L94.02 1.24L95.77 1.14L97.51 1.06L99.25 1.02L101 1L102.75 1.02L104.49 1.06L106.23 1.14L107.98 1.24L109.72 1.38L111.45 1.55L113.19 1.75L114.92 1.97L116.64 2.23L118.36 2.52L101 101Z" clip-rule="evenodd" fill-rule="evenodd"></path>
<path stroke="black" fill="white" d="M101 101L118.36 2.52002L120.08 2.84002L121.79 3.19002L123.5 3.56002L125.19 3.97002L126.88 4.41002L128.56 4.87002L130.24 5.37002L131.9 5.89002L133.56 6.45002L135.2 7.03002L136.84 7.64002L138.46 8.28002L140.07 8.95002L141.67 9.65002L143.26 10.37L144.84 11.12L146.4 11.9L147.95 12.71L149.48 13.54L151 14.4L152.5 15.28L153.99 16.2L155.46 17.13L156.92 18.1L158.36 19.08L159.78 20.1L161.18 21.14L162.57 22.2L163.93 23.29L165.28 24.4L166.61 25.53L167.91 26.69L169.2 27.86L170.47 29.07L171.71 30.29L172.93 31.53L174.14 32.8L175.31 34.09L176.47 35.39L177.6 36.72L101 101Z" clip-rule="evenodd" fill-rule="evenodd"></path>
<path stroke="black" fill="white" d="M101 101L177.6 36.72L178.71 38.07L179.8 39.43L180.86 40.82L181.9 42.22L182.92 43.64L183.9 45.08L184.87 46.54L185.8 48.01L186.72 49.5L187.6 51L188.46 52.52L189.29 54.05L190.1 55.6L190.88 57.16L191.63 58.74L192.35 60.33L193.05 61.93L193.72 63.54L194.36 65.16L194.97 66.8L195.55 68.44L196.11 70.1L196.63 71.76L197.13 73.44L197.59 75.12L198.03 76.81L198.44 78.5L198.81 80.21L199.16 81.92L199.48 83.64L199.77 85.36L200.03 87.08L200.25 88.81L200.45 90.55L200.62 92.28L200.76 94.02L200.86 95.77L200.94 97.51L200.98 99.25L201 101H101Z" clip-rule="evenodd" fill-rule="evenodd"></path>
</svg>
