<svg version="1.1" xmlns="http://www.w3.org/2000/svg" xmlns:xlink="http://www.w3.org/1999/xlink" width="101.71285" height="71.91999" viewBox="0,0,101.71285,71.91999"><g transform="translate(-139.22884,-107.95891)"><g fill="#ffff00" fill-rule="evenodd" stroke="#000000" stroke-miterlimit="10"><path d="M239.73458,179.3789h-100l0.02,-1.75l0.04,-1.74l0.08,-1.74l0.1,-1.75l0.14,-1.74l0.17,-1.73l0.2,-1.74l0.22,-1.73l0.26,-1.72l0.29,-1.72l0.32,-1.72l0.35,-1.71l0.37,-1.71l0.41,-1.69l0.44,-1.69l0.46,-1.68l0.5,-1.68l0.52,-1.66l0.56,-1.66l0.58,-1.64l0.61,-1.64l0.64,-1.62l0.67,-1.61l0.7,-1.6l0.72,-1.59l0.75,-1.58l0.78,-1.56l0.81,-1.55l0.83,-1.53l0.86,-1.52l0.88,-1.5l0.92,-1.49l0.93,-1.47l0.97,-1.46l0.98,-1.44l1.02,-1.42l1.04,-1.4l1.06,-1.39l1.09,-1.36l1.11,-1.35l1.13,-1.33l1.16,-1.3l1.17,-1.29l1.21,-1.27l1.22,-1.24z"/></g></g></svg>