<svg xmlns="http://www.w3.org/2000/svg" fill="none" viewBox="0 0 69 103" height="103" width="69">
<path stroke="black" fill="#D30000" d="M51 101L1 14.4L2.52 13.54L4.05 12.71L5.6 11.9L7.16 11.12L8.74 10.37L10.33 9.65L11.93 8.95L13.54 8.28L15.16 7.64L16.8 7.03L18.44 6.45L20.1 5.89L21.76 5.37L23.44 4.87L25.12 4.41L26.81 3.97L28.5 3.56L30.21 3.19L31.92 2.84L33.64 2.52L35.36 2.23L37.08 1.97L38.81 1.75L40.55 1.55L42.28 1.38L44.02 1.24L45.77 1.14L47.51 1.06L49.25 1.02L51 1L52.75 1.02L54.49 1.06L56.23 1.14L57.98 1.24L59.72 1.38L61.45 1.55L63.19 1.75L64.92 1.97L66.64 2.23L68.36 2.52L51 101Z" clip-rule="evenodd" fill-rule="evenodd"></path>
</svg>
